<svg width="20" height="16" viewBox="0 0 20 16" fill="none" xmlns="http://www.w3.org/2000/svg">
<path d="M2.5 1.75C1.80859 1.75 1.25 2.30859 1.25 3V4.55859L8.89062 10.1602C9.55078 10.6445 10.4492 10.6445 11.1094 10.1602L18.75 4.55859V3C18.75 2.30859 18.1914 1.75 17.5 1.75H2.5ZM1.25 6.10938V13C1.25 13.6914 1.80859 14.25 2.5 14.25H17.5C18.1914 14.25 18.75 13.6914 18.75 13V6.10938L11.8477 11.168C10.7461 11.9727 9.25 11.9727 8.15234 11.168L1.25 6.10938ZM0 3C0 1.62109 1.12109 0.5 2.5 0.5H17.5C18.8789 0.5 20 1.62109 20 3V13C20 14.3789 18.8789 15.5 17.5 15.5H2.5C1.12109 15.5 0 14.3789 0 13V3Z" fill="black"/>
</svg>
